<svg xmlns="http://www.w3.org/2000/svg" width="192.238" height="37.988" viewBox="0 0 192.238 37.988">
  <g id="Group_55" data-name="Group 55" transform="translate(-134.294 -39.2)">
    <path id="Path_78" data-name="Path 78" d="M163.749,56.045" transform="translate(4.58 2.62)" fill="none" stroke="#3a6928" stroke-linecap="round" stroke-linejoin="round" stroke-width="1"/>
    <g id="Group_53" data-name="Group 53" transform="translate(206.75 42.36)">
      <path id="Path_79" data-name="Path 79" d="M206.257,58.382l.861-.426a6.815,6.815,0,0,0,2.927-2.773,12.624,12.624,0,0,0,1.623-4.354h5.863a9.828,9.828,0,0,1-.491,2.587,4.256,4.256,0,0,1-1.556,2.349l-.537.407.656-.15a3.26,3.26,0,0,0,1.962-1.33,7.884,7.884,0,0,0,1.194-2.351,10.106,10.106,0,0,0,.476-2.246l.015-.158h-7.438A14.387,14.387,0,0,0,211.925,48a13.586,13.586,0,0,0-.948-5.185l-.348-.884.069.949c.021.288.032.758.034,1.4a33.992,33.992,0,0,1-.417,5.077,25.4,25.4,0,0,1-1.286,5.056,7.844,7.844,0,0,1-2.075,3.309Z" transform="translate(-195.559 -41.935)" fill="#74ae77"/>
      <path id="Path_80" data-name="Path 80" d="M216.832,68.8l0-.006a29.1,29.1,0,0,1-2.235-5.542,27.866,27.866,0,0,1-1.134-6.038l-.288-.006A23.193,23.193,0,0,0,213,60.14a16.731,16.731,0,0,0,1,6.09,11.806,11.806,0,0,0,2.427,4.04,8.024,8.024,0,0,0,2.766,1.981l.974.422L219.343,72A9.1,9.1,0,0,1,216.832,68.8Z" transform="translate(-194.511 -39.56)" fill="#74ae77"/>
      <path id="Path_81" data-name="Path 81" d="M205.841,74.04l1.555-.009V54.984h2.281v-.893h-7.243V48.012A12.361,12.361,0,0,0,207.41,46.8a4.994,4.994,0,0,0,2.87-3.35l.177-.681-.431.556a6.52,6.52,0,0,1-2.678,2.037,20.523,20.523,0,0,1-4.214,1.415,25.344,25.344,0,0,1-4.238.616l-.887.054.859.23a10.579,10.579,0,0,0,1.939.33v7.009a103.822,103.822,0,0,1-.633,13.172c-.416,3.049-1.2,5.172-2.34,6.307l-.833.833,1.01-.608a6.15,6.15,0,0,0,2.66-3.309,23.792,23.792,0,0,0,1.368-6.355c.268-2.629.4-6.006.4-10.04v-.022h3.4Z" transform="translate(-196.999 -41.806)" fill="#74ae77"/>
      <path id="Path_82" data-name="Path 82" d="M212.663,56.321c0,4.627-.673,8.367-2,11.118a10.742,10.742,0,0,1-5.025,5.481l-1.024.455,1.106-.181a7.606,7.606,0,0,0,4.392-2.393,13.88,13.88,0,0,0,3.016-5.641,30.3,30.3,0,0,0,1.093-8.7V52.048h-1.56Z" transform="translate(-195.815 -40.362)" fill="#74ae77"/>
      <path id="Path_83" data-name="Path 83" d="M240.719,43.736l.006-.142-1.562-.083-.006.147c-.065,1.679-.163,3.4-.292,5.121h-4.838v.892h4.747c-.917,9.62-3.107,15.988-6.508,18.927l-.433.376V52.341a18.745,18.745,0,0,0,1.311-6.8,12.611,12.611,0,0,0-.275-2.616l-.192-.906-.094.922a28.023,28.023,0,0,1-1.2,5.758,36.906,36.906,0,0,1-2.658,6.552,11.814,11.814,0,0,1-3.494,4.356l-.592.454.719-.2a6.417,6.417,0,0,0,2.81-1.645,13.037,13.037,0,0,0,2.1-2.646v18.65h1.565v-5.1l.589-.277c2.192-1.034,3.97-3.227,5.293-6.525V74.182h1.563V71.6h6.316v2.281h1.559V58.807h-8.3a55.186,55.186,0,0,0,1.492-9.133H248.4v-.892h-7.971C240.557,47.109,240.656,45.412,240.719,43.736ZM245.594,59.7V70.712h-6.316V59.7Z" transform="translate(-192.701 -41.922)" fill="#74ae77"/>
      <path id="Path_84" data-name="Path 84" d="M265.293,43.5h-1.63v5.533h-7.945v13.4h1.559V60.746h6.384V74.025h1.629V60.746h6.552v1.675H273.4v-13.4h-8.114Zm6.553,6.423v9.938h-6.552V49.914Zm-8.183,0v9.943h-6.383V49.914Z" transform="translate(-187.868 -41.692)" fill="#74ae77"/>
      <path id="Path_85" data-name="Path 85" d="M282.414,53.543a6.4,6.4,0,0,0,.469,2.735,2.811,2.811,0,0,0,1.644,1.4,9.825,9.825,0,0,0,3.186.406c.173.012.347.017.522.017a8.323,8.323,0,0,0,3.14-.617,2.464,2.464,0,0,0,1.35-1.977l.076-.8-.35.722a2.207,2.207,0,0,1-1.381,1.162,11.069,11.069,0,0,1-3.156.332,7.723,7.723,0,0,1-2.351-.28,2.139,2.139,0,0,1-1.058-.7,5.733,5.733,0,0,0,3.738-3.629,7.235,7.235,0,0,1,1.986,1.569,5.68,5.68,0,0,1,1.244,1.931l.156.408.117-.422a2.949,2.949,0,0,0,.106-.778,3.14,3.14,0,0,0-1-2.266,3.586,3.586,0,0,0-2.43-1c.068-.21.131-.428.184-.647h3.517v-.5l.1-.006a3.758,3.758,0,0,0,2.406-1.064l0,0a3.724,3.724,0,0,0,.944-1.923,17.081,17.081,0,0,0,.17-2.506h2.761v.759a14.035,14.035,0,0,0,.169,2.537,1.988,1.988,0,0,0,.758,1.314,2.962,2.962,0,0,0,1.694.388,2.327,2.327,0,0,0,1.63-.577,1.876,1.876,0,0,0,.564-1.6l-.087-.654-.194.631a1.566,1.566,0,0,1-.6.823,2.155,2.155,0,0,1-1.14.25c-.563,0-.92-.147-1.054-.419a4.846,4.846,0,0,1-.244-1.882V44.216h-5.754v.144c0,1.37-.029,2.393-.083,3.04a3.964,3.964,0,0,1-.532,1.693,3.238,3.238,0,0,1-1.476,1.236l-.037.015v-.061h-3.359a17.152,17.152,0,0,0,.27-2.862h2.65V46.6h-4.71a3.751,3.751,0,0,0,.017-.428,5.042,5.042,0,0,0-.129-1.061h5.694v-.891H280.9v.891h1.51Zm2.927-5.992a5.718,5.718,0,0,1-1.434,1.9l0-4.346H286.2A9.209,9.209,0,0,1,285.341,47.551Zm-1.432,2.558a3.882,3.882,0,0,0,1.815-.968,4.028,4.028,0,0,0,1.065-1.719h.885a17.5,17.5,0,0,1-.248,2.862h-3.274v.825h3.122a6.33,6.33,0,0,1-3.07,4.308,5.513,5.513,0,0,1-.3-2.14Z" transform="translate(-183.951 -41.58)" fill="#74ae77"/>
      <path id="Path_86" data-name="Path 86" d="M281.222,58.427h8.383a13.34,13.34,0,0,1-.177,2.126h-5.255V71.805h1.5V69.794H299.43v2.012h1.5V60.553h-5.7V58.427h8.182v-.892H281.222Zm4.448,6.831V61.445h3.561a5.777,5.777,0,0,1-1.245,2.338A6.006,6.006,0,0,1,285.67,65.258Zm13.763-.722,0,4.365H285.67V65.76a6.282,6.282,0,0,0,3.373-1.318,5.69,5.69,0,0,0,1.731-3h2.963a6.45,6.45,0,0,0,.377,1.94,2.1,2.1,0,0,0,1.1,1.135,5.025,5.025,0,0,0,2.1.345A4.861,4.861,0,0,0,299.433,64.536Zm0-1.057a5.4,5.4,0,0,1-3.287.069,1.244,1.244,0,0,1-.674-.685,4.764,4.764,0,0,1-.243-1.419h4.2Zm-8.5-2.926a13.507,13.507,0,0,0,.173-2.126h2.63v2.126Z" transform="translate(-183.902 -39.509)" fill="#74ae77"/>
      <path id="Path_87" data-name="Path 87" d="M289.861,57.184l-1.324.24,1.346.046c.1,0,.2,0,.3,0a8.529,8.529,0,0,0,2.921-.514,10.135,10.135,0,0,0,2.918-1.6,8.986,8.986,0,0,0,2.274,1.373,6.473,6.473,0,0,0,2.492.532,7.585,7.585,0,0,0,.857-.067l.9-.126-.9-.159a6.559,6.559,0,0,1-2.2-.823,14.607,14.607,0,0,1-2.371-1.658,9.049,9.049,0,0,0,2.442-4.591l.035-.172h-7.729v.889h1.414A5.209,5.209,0,0,0,293.8,52.6a8.565,8.565,0,0,0,1.315,1.9,12.1,12.1,0,0,1-2.492,1.725A9.5,9.5,0,0,1,289.861,57.184Zm7.976-6.622a8.036,8.036,0,0,1-1.762,3.012,9.789,9.789,0,0,1-2.37-3.012Z" transform="translate(-182.765 -40.732)" fill="#74ae77"/>
      <rect id="Rectangle_67" data-name="Rectangle 67" width="12.159" height="0.893" transform="translate(102.519 26.711)" fill="#74ae77"/>
    </g>
    <g id="Group_54" data-name="Group 54" transform="translate(134.294 39.2)">
      <circle id="Ellipse_14" data-name="Ellipse 14" cx="7.16" cy="7.16" r="7.16" transform="translate(25.028)" fill="#f59749"/>
      <path id="Path_79-2" data-name="Path 79" d="M164.154,75.759c.043-6.971-.015-8.064,1.042-12.511,2.088-8.775,8.945-14.29,29.805-12.024,0,0-12.462-5.173-23.6-1.555-4.071,1.322-7.8,4.158-9.331,8.149-1.941,5.069-1.591,8.5-1.248,13.54.176,2.6.185,1.942.382,4.4Z" transform="translate(-130.21 -37.771)" fill="#74ae77"/>
      <circle id="Ellipse_15" data-name="Ellipse 15" cx="0.66" cy="0.66" r="0.66" transform="translate(28.616 4.349)" fill="#fff"/>
      <circle id="Ellipse_16" data-name="Ellipse 16" cx="0.66" cy="0.66" r="0.66" transform="translate(34.426 4.349)" fill="#fff"/>
      <path id="Path_80-2" data-name="Path 80" d="M158.8,46.346a6.146,6.146,0,0,0,1.814,1.264,5.141,5.141,0,0,0,4.1-.008,6.645,6.645,0,0,0,1.822-1.256,3.937,3.937,0,0,1-1.524,1.8,4.4,4.4,0,0,1-4.694.008A3.8,3.8,0,0,1,158.8,46.346Z" transform="translate(-130.484 -38.088)" fill="#fff"/>
      <path id="Path_81-2" data-name="Path 81" d="M151.876,63.292" transform="translate(-131.56 -35.453)" fill="none" stroke="#335525" stroke-linecap="round" stroke-linejoin="round" stroke-width="0.965"/>
      <g id="Group_42" data-name="Group 42" transform="translate(0 11.187)">
        <path id="Path_82-2" data-name="Path 82" d="M161.436,58.971a13.04,13.04,0,0,0-3.276-2.863,21.543,21.543,0,0,0-3.945-1.955A40.49,40.49,0,0,0,150,52.769a62.868,62.868,0,0,0-8.761-1.625c-1.479-.178-2.964-.312-4.453-.385q-.969-.05-1.941-.08a22.757,22.757,0,0,1,8.374,3.477c5.36,3.536,8.912,4.727,15.406,6.2,1.241.283,2.561.2,3.584.941a3.205,3.205,0,0,1,.8.8A8.238,8.238,0,0,0,161.436,58.971Z" transform="translate(-134.209 -48.601)" fill="#74ae77"/>
        <path id="Path_83-2" data-name="Path 83" d="M141.485,50.636a60.286,60.286,0,0,1,9.022,1.576,27.355,27.355,0,0,1,8.441,3.577,13.605,13.605,0,0,1,3.363,3.141,10.376,10.376,0,0,1,1.751,3.858c.452-2.684,1.815-18.429-29.767-12.638Q137.9,50.267,141.485,50.636Z" transform="translate(-134.294 -48.881)" fill="#74ae77"/>
      </g>
      <path id="Path_84-2" data-name="Path 84" d="M165.491,62.812s1.5-14.153,27.737-11.364C193.228,51.449,171.869,55.193,165.491,62.812Z" transform="translate(-129.443 -37.352)" fill="#74ae77"/>
    </g>
  </g>
</svg>
