<svg id="三高心血管-icon" xmlns="http://www.w3.org/2000/svg" width="107.902" height="107.902" viewBox="0 0 107.902 107.902">
  <path id="Path_71" data-name="Path 71" d="M53.951,0A53.951,53.951,0,1,1,0,53.951,53.951,53.951,0,0,1,53.951,0Z" fill="#ffaf5e"/>
  <g id="Group_12" data-name="Group 12" transform="translate(7.82 24.864)">
    <path id="Path_25" data-name="Path 25" d="M722.418,1103.318a1.5,1.5,0,0,0-.868.678,16.077,16.077,0,0,1-25.114,1.146,15.238,15.238,0,0,1-2.931-4.913,1.809,1.809,0,0,0,1.85-2.064l.006-.537c.007-.444.014-.9-.015-1.359-.019-.3.016-.387.385-.515a12.126,12.126,0,0,0,8.314-9.764,10.041,10.041,0,0,0-.625-6.032l-.114-.263a13.971,13.971,0,0,0-1.689-3.15,11.882,11.882,0,0,0-11.341-4.7,12.319,12.319,0,0,0-2.08,23.977c.3.1.325.148.311.378-.026.436-.02.874-.014,1.312l.006.527a2.254,2.254,0,0,0,.513,1.7,2.2,2.2,0,0,0,1.678.476c.3.012.369.044.491.37,2.539,6.751,7.334,10.8,14.248,12.034a20.3,20.3,0,0,0,3.565.327c5.14,0,9.66-2.143,13.474-6.4a8.848,8.848,0,0,0,1.159-1.555,1.362,1.362,0,0,0-.066-1.258A1.282,1.282,0,0,0,722.418,1103.318Zm-29.424-6.955v1.556h-2.141v-1.556Zm8.956-12.324a10.083,10.083,0,0,1-10.095,10.047,10.024,10.024,0,0,1,.029-20.048h.018a10.045,10.045,0,0,1,7.157,3.015A9.78,9.78,0,0,1,701.951,1084.039Z" transform="translate(-679.52 -1054.771)" fill="#fff"/>
    <path id="Path_26" data-name="Path 26" d="M761.778,1083.33a7.632,7.632,0,0,0-4.652-7.212c-.309-.146-.348-.244-.343-.556.023-1.469-.31-1.9-1.663-2.036-.017-.191-.035-.383-.052-.574-.053-.581-.1-1.18-.2-1.768a17.159,17.159,0,0,0-32.989-3.432,20.68,20.68,0,0,0-.8,2.993l-.159.724a1.27,1.27,0,0,0,.16,1.02,1.135,1.135,0,0,0,.777.471c.667.106,1.181-.346,1.328-1.139.017-.1.032-.2.046-.3s.029-.209.05-.314a14.874,14.874,0,0,1,28.219-3.367,14.25,14.25,0,0,1,1.268,5.681c-.965.126-1.547.406-1.669,1.256a3.382,3.382,0,0,0-.017.814c.029.274-.014.376-.339.526a7.343,7.343,0,0,0-4.562,6.237,50,50,0,0,0-.1,5.108c.009.572.018,1.144.02,1.715a5.75,5.75,0,0,0,.241,1.474,7.367,7.367,0,0,0,3.9,4.9c.738.366.92.65.849,1.316a1.3,1.3,0,0,0,.3,1.027,1.5,1.5,0,0,0,1.12.476c.482.011.958.016,1.428.016.485,0,.964-.006,1.429-.017a1.387,1.387,0,0,0,1.4-1.37,4.885,4.885,0,0,0,0-.794c-.018-.175,0-.24.25-.357a7.669,7.669,0,0,0,4.742-7.274C761.814,1086.806,761.814,1085.042,761.778,1083.33Zm-7.3,12.411v.283h-1.093v-.837a1.167,1.167,0,0,0-.859-1.186,5.572,5.572,0,0,1-4.136-5.873l0-1.575c0-1.083-.006-2.166.007-3.25a5.5,5.5,0,0,1,3.938-5.321,1.32,1.32,0,0,0,1.057-1.479c-.015-.193-.011-.387-.007-.595l1.1-.018v.8a1.21,1.21,0,0,0,.885,1.228c2.884,1.043,4.114,2.8,4.114,5.886v1.447c0,1.144,0,2.289,0,3.436a5.563,5.563,0,0,1-3.685,5.18C754.567,1094.3,754.482,1094.426,754.477,1095.741Zm.392-21.972-.017.02h0l.009-.018Z" transform="translate(-674.303 -1056.672)" fill="#fff"/>
    <path id="Path_27" data-name="Path 27" d="M742.014,1087.6a11.572,11.572,0,0,0,1.226-5.154,11.21,11.21,0,0,0-4.2-8.925,11.91,11.91,0,0,0-9.843-2.175,10.6,10.6,0,0,0-5.338,3.035l-.393-.372a11.379,11.379,0,0,0-13.826-1.349,11.69,11.69,0,0,0-4.073,14.579,19.064,19.064,0,0,0,3.734,5.455,49.482,49.482,0,0,0,13.956,9.918,1.306,1.306,0,0,0,.6.151,1.919,1.919,0,0,0,.864-.249,54.418,54.418,0,0,0,9.918-6.3A25.355,25.355,0,0,0,742.014,1087.6ZM715.2,1073.238c.117-.008.225-.017.319-.026a9.292,9.292,0,0,1,7.232,3.4,1.688,1.688,0,0,0,1.151.741h.02a1.613,1.613,0,0,0,1.108-.767,8.924,8.924,0,0,1,12.134-1.528,8.756,8.756,0,0,1,3.73,8.258,11.176,11.176,0,0,1-2.627,6.012,31.044,31.044,0,0,1-8.163,7.33c-1.471.964-3.031,1.857-4.537,2.719q-.7.4-1.4.806a.62.62,0,0,1-.411.068,46.609,46.609,0,0,1-12.739-9.122,15.313,15.313,0,0,1-3.733-5.812,9.79,9.79,0,0,1,.9-7.96,8.461,8.461,0,0,1,6-4.008C714.536,1073.29,714.9,1073.263,715.2,1073.238Z" transform="translate(-676.366 -1054.874)" fill="#fff"/>
    <path id="Path_28" data-name="Path 28" d="M699.266,1069.129c.447.314.9.619,1.355.922l1.255.848c.667.454,1.333.908,2.01,1.346a1.319,1.319,0,0,0,.714.223,1.069,1.069,0,0,0,.5-.125,1.3,1.3,0,0,0,.633-1.179l0-.114-.071-.088c-.02-.027-.044-.064-.071-.106a1.857,1.857,0,0,0-.474-.544c-1.507-1.049-3.032-2.072-4.558-3.095a1.353,1.353,0,0,0-.923-.24,1.1,1.1,0,0,0-.767.492A1.174,1.174,0,0,0,699.266,1069.129Z" transform="translate(-677.104 -1055.373)" fill="#fff"/>
    <path id="Path_29" data-name="Path 29" d="M728.482,1101.6a1.088,1.088,0,0,0-1.233-.953,1.067,1.067,0,0,0-.761.38,1.237,1.237,0,0,0-.27.939q.309,2.823.648,5.642A1.106,1.106,0,0,0,728,1108.64c.033,0,.065,0,.1,0a1.157,1.157,0,0,0,1.066-1.259v-.02l-.176-1.522C728.824,1104.438,728.661,1103.015,728.482,1101.6Z" transform="translate(-673.631 -1051.125)" fill="#fff"/>
    <path id="Path_30" data-name="Path 30" d="M738.114,1103.4a1.862,1.862,0,0,0-.237-.456q-1.542-1.995-3.112-3.972a1.157,1.157,0,1,0-1.814,1.424c.284.381.578.753.872,1.126l.28.356c.179.225.355.454.53.682.476.617.968,1.257,1.5,1.853a1.39,1.39,0,0,0,.987.38.941.941,0,0,0,.892-.567,2.493,2.493,0,0,1,.164-.208l.142-.156-.089-.19C738.184,1103.568,738.147,1103.478,738.114,1103.4Z" transform="translate(-672.818 -1051.401)" fill="#fff"/>
    <path id="Path_31" data-name="Path 31" d="M706.329,1063.24l.073.159q.863,1.914,1.731,3.821a1.128,1.128,0,0,0,1.008.744,1.116,1.116,0,0,0,.4-.077,1.826,1.826,0,0,0,.633-.5c.065-.07.132-.141.2-.2l.219-.2-.185-.231-.047-.072a1.049,1.049,0,0,0-.077-.311l-.384-.856c-.6-1.335-1.2-2.671-1.822-4a1.068,1.068,0,0,0-1.484-.508,1.08,1.08,0,0,0-.6,1.432C706.088,1062.713,706.209,1062.977,706.329,1063.24Z" transform="translate(-676.192 -1056.139)" fill="#fff"/>
    <path id="Path_32" data-name="Path 32" d="M742.345,1094.914q-2.214-.884-4.431-1.756c-.131-.051-.266-.091-.387-.127l-.189-.056-.062,0a1.158,1.158,0,0,0-.376,2.254l.872.349q1.856.74,3.713,1.475a1.794,1.794,0,0,0,.648.135,1.113,1.113,0,0,0,.461-.094,1.1,1.1,0,0,0,.578-.649A1.157,1.157,0,0,0,742.345,1094.914Z" transform="translate(-672.382 -1052.092)" fill="#fff"/>
    <path id="Path_33" data-name="Path 33" d="M715.293,1067.463a1.386,1.386,0,0,0,.139.008,1.108,1.108,0,0,0,.739-.27,1.3,1.3,0,0,0,.408-.856q.265-2.481.512-4.965a1.142,1.142,0,0,0-1.008-1.369,1.109,1.109,0,0,0-1.267,1.057c-.142,1.24-.269,2.481-.4,3.722l-.141,1.356,0,.023A1.15,1.15,0,0,0,715.293,1067.463Z" transform="translate(-675.136 -1056.252)" fill="#fff"/>
    <path id="Path_34" data-name="Path 34" d="M694.683,1083.411c-.055-.06-.122-.117-.188-.177l-.182-.159a2.832,2.832,0,0,0-1.677-2.528,3.036,3.036,0,0,0-3.106.394.354.354,0,0,1-.208.043c-.8-.36-1.588-.737-2.378-1.112-.506-.239-1.012-.479-1.52-.715-.92-.429-1.506-.063-1.748.423a1.084,1.084,0,0,0-.073.856,1.512,1.512,0,0,0,.846.816l.238.11c1.177.544,2.351,1.089,3.535,1.616.189.083.23.144.246.363a2.878,2.878,0,0,0,1.659,2.393,3,3,0,0,0,1.3.306,2.724,2.724,0,0,0,1.535-.471.628.628,0,0,1,.786-.076,1.039,1.039,0,0,0,1.019-.04,1.36,1.36,0,0,0,.622-1.179v-.13l-.215-.223C695.037,1083.784,694.858,1083.6,694.683,1083.411Zm-2.713-.265a.557.557,0,0,1-.168.4.733.733,0,0,1-.523.2h0a.592.592,0,0,1-.583-.582.7.7,0,0,1,.215-.5.66.66,0,0,1,.45-.207h.009A.78.78,0,0,1,691.97,1083.146Z" transform="translate(-679.013 -1053.859)" fill="#fff"/>
    <path id="Path_35" data-name="Path 35" d="M691.276,1075.275h-.015c-.417-.015-1.682-.052-1.737,1.079a1.1,1.1,0,0,0,.284.835,1.442,1.442,0,0,0,1.089.384,5.8,5.8,0,0,1,4.583,2.464,1.387,1.387,0,0,0,1.044.565,1.081,1.081,0,0,0,.67-.241,1.169,1.169,0,0,0,.114-1.749A8.244,8.244,0,0,0,691.276,1075.275Z" transform="translate(-678.258 -1054.326)" fill="#fff"/>
    <path id="Path_36" data-name="Path 36" d="M687.329,1078.522a.56.56,0,0,0,.2-.035,6.338,6.338,0,0,0,1.318-.766l.3-.211a.664.664,0,0,0,.243-.421l.023-.051v-.066a1.25,1.25,0,0,0-.512-1.012,1.082,1.082,0,0,0-.974-.139,5.93,5.93,0,0,0-1.324.677,1.088,1.088,0,0,0-.48.714.943.943,0,0,0,.187.734A1.543,1.543,0,0,0,687.329,1078.522Z" transform="translate(-678.689 -1054.264)" fill="#fff"/>
    <path id="Path_37" data-name="Path 37" d="M749.749,1076.345a5,5,0,0,0-3.322,4.237l-.011.1.052.09c.051.087.095.183.139.277a1.767,1.767,0,0,0,.489.711,1.037,1.037,0,0,0,.622.216.958.958,0,0,0,.4-.086,1.328,1.328,0,0,0,.722-1.12,2.434,2.434,0,0,1,1.681-2.248c1.158-.427,1.017-1.215.9-1.534A1.194,1.194,0,0,0,749.749,1076.345Z" transform="translate(-671.082 -1054.203)" fill="#fff"/>
    <path id="Path_38" data-name="Path 38" d="M710.088,1081.919l.074,0c.376,0,1.089-.163,1.161-1.411a2.968,2.968,0,0,1,2.985-2.938c.8-.028,1.307-.467,1.316-1.143a1.072,1.072,0,0,0-.3-.788,1.453,1.453,0,0,0-1.064-.377h-.009a5.269,5.269,0,0,0-5.24,5.232C708.979,1081.722,709.753,1081.9,710.088,1081.919Z" transform="translate(-675.8 -1054.327)" fill="#fff"/>
  </g>
</svg>
