<svg id="Group_79" data-name="Group 79" xmlns="http://www.w3.org/2000/svg" width="107.902" height="107.902" viewBox="0 0 107.902 107.902">
  <path id="Path_75" data-name="Path 75" d="M53.951,0A53.951,53.951,0,1,1,0,53.951,53.951,53.951,0,0,1,53.951,0Z" fill="#ffaf5e"/>
  <g id="Group_9" data-name="Group 9" transform="translate(23.494 22.381)">
    <path id="Path_19" data-name="Path 19" d="M503.442,1065.373a9.02,9.02,0,0,1-8.674-8.908l-.026-2H455.115l-.025,2a9.021,9.021,0,0,1-8.674,8.908l-1.945.074v16.293a41.377,41.377,0,0,0,19.915,35.637l10.542,6.233,10.542-6.233a41.375,41.375,0,0,0,19.916-35.637v-16.293Zm-2.1,16.367a37.313,37.313,0,0,1-17.928,32.154l-8.483,5.016-8.482-5.016a37.314,37.314,0,0,1-17.929-32.154v-12.545a13.068,13.068,0,0,0,10.442-10.682H490.9a13.068,13.068,0,0,0,10.442,10.682Z" transform="translate(-444.472 -1054.467)" fill="#fff"/>
    <path id="Path_20" data-name="Path 20" d="M474.5,1075.044h-4.046v6.527h-6.527v4.045h6.527v6.527H474.5v-6.527h6.526v-4.045H474.5Z" transform="translate(-442.018 -1051.871)" fill="#fff"/>
    <path id="Path_21" data-name="Path 21" d="M473.5,1066.922a17.7,17.7,0,1,0,17.7,17.7A17.716,17.716,0,0,0,473.5,1066.922Zm0,31.346a13.65,13.65,0,1,1,13.65-13.65A13.666,13.666,0,0,1,473.5,1098.268Z" transform="translate(-443.042 -1052.896)" fill="#fff"/>
  </g>
</svg>
