<svg xmlns="http://www.w3.org/2000/svg" width="107.902" height="107.902" viewBox="0 0 107.902 107.902">
  <g id="感冒icon" transform="translate(-287.774 -1422.834)">
    <path id="Path_72" data-name="Path 72" d="M53.951,0A53.951,53.951,0,1,1,0,53.951,53.951,53.951,0,0,1,53.951,0Z" transform="translate(287.774 1422.834)" fill="#ffaf5e"/>
    <g id="Group_14" data-name="Group 14" transform="translate(303.356 1441.464)">
      <path id="Path_39" data-name="Path 39" d="M401.537,1251.322c-3.715-6.874-9.975-11.854-18.105-14.4a37.86,37.86,0,0,0-11.237-1.785c-7.958.006-14.9,3.345-18.121,8.718a13.543,13.543,0,0,0-1.063,2.2c-1.517,1.444-8.361,8.518-8.361,18.547,0,6.681-3.214,10.169-5.13,11.653a2.7,2.7,0,0,0,.331,4.482c.722.406,1.535.8,2.32,1.172.695.333,1.68.806,2.161,1.115v2.759a1.465,1.465,0,0,0,.407,1.014l2.857,2.991-1.777,1.677a1.467,1.467,0,0,0-.46,1.066v3.2a6.7,6.7,0,0,0,6.695,6.695h4.331a8.756,8.756,0,0,1,7.177,3.746l2.463,3.49a1.467,1.467,0,0,0,1.2.622h24.792a1.468,1.468,0,0,0,1.393-1.93l-4.2-12.669a14.86,14.86,0,0,0,7.358-3.814,30.511,30.511,0,0,0,9.3-19.71A37.287,37.287,0,0,0,401.537,1251.322Zm-33.55,56.025-2.021-2.863a11.689,11.689,0,0,0-9.579-4.994h-4.331a3.764,3.764,0,0,1-3.76-3.759v-2.567l2.39-2.255a1.469,1.469,0,0,0,.054-2.081l-3.471-3.633v-2.682c0-1.415-1.44-2.1-3.826-3.25-.626-.3-1.269-.609-1.839-.913,2.36-1.927,5.983-6.127,5.983-13.748a22.683,22.683,0,0,1,4.583-13.058,18.621,18.621,0,0,0,2.32,7.9c3.765,7.043,10.322,9.995,15.59,12.365,5.011,2.257,7.849,3.677,7.871,6.63.017,2.168-.481,3.762-1.481,4.74a4.09,4.09,0,0,1-2.684,1.1h-.012a1.446,1.446,0,0,0-1.255.572,1.466,1.466,0,0,0-.206,1.375c.006.018.064.186.177.462a14.911,14.911,0,0,0,13.721,9.277l3.774,11.379Zm26.557-17.6a11.788,11.788,0,0,1-7.243,3.264,1.514,1.514,0,0,0-.276.018,12.214,12.214,0,0,1-3.248-.26,11.773,11.773,0,0,1-7.951-5.883,6.755,6.755,0,0,0,2.648-1.553c1.625-1.557,2.437-3.881,2.413-6.909-.038-4.979-4.684-7.07-9.6-9.283-5.116-2.3-10.914-4.913-14.206-11.072-2.046-3.827-2.527-7.465-1.438-10.654l.014-.037a10.69,10.69,0,0,1,.938-2.009c2.7-4.5,8.681-7.291,15.622-7.291h.042a35.17,35.17,0,0,1,10.3,1.651c7.49,2.347,13.008,6.72,16.4,13C404.6,1263.159,405.622,1279.2,394.543,1289.743Z" transform="translate(-329.271 -1235.135)" fill="#fff"/>
      <path id="Path_40" data-name="Path 40" d="M332.726,1278.3a1.87,1.87,0,0,1,1.848-3.251c.9.51,2.485,3.564,2.485,3.564S333.624,1278.81,332.726,1278.3Z" transform="translate(-330.116 -1230.13)" fill="#fff"/>
      <path id="Path_41" data-name="Path 41" d="M332.563,1285.451a1.921,1.921,0,1,1,.2-3.733c1.3.071,4.853,2.138,4.853,2.138S333.867,1285.523,332.563,1285.451Z" transform="translate(-330.302 -1229.259)" fill="#fff"/>
      <path id="Path_42" data-name="Path 42" d="M337.784,1291.507a1.559,1.559,0,1,1-1.364-2.8c.775-.377,3.624-.028,3.624-.028S338.558,1291.13,337.784,1291.507Z" transform="translate(-329.641 -1228.399)" fill="#fff"/>
    </g>
  </g>
</svg>
