<svg xmlns="http://www.w3.org/2000/svg" width="144.328" height="99.84" viewBox="0 0 144.328 99.84">
  <g id="欣佑logo-wite" transform="translate(-50.098 -125.318)">
    <g id="Group_82" data-name="Group 82" transform="translate(50.098 184.768)">
      <path id="Path_113" data-name="Path 113" d="M54.986,167.682l1.039-.514a8.215,8.215,0,0,0,3.526-3.341,15.193,15.193,0,0,0,1.957-5.248h7.064a11.84,11.84,0,0,1-.591,3.117,5.137,5.137,0,0,1-1.875,2.832l-.649.488.791-.179a3.918,3.918,0,0,0,2.363-1.6,9.515,9.515,0,0,0,1.44-2.832,12.2,12.2,0,0,0,.572-2.708l.018-.19H61.679a17.578,17.578,0,0,0,.14-2.328,16.341,16.341,0,0,0-1.144-6.247l-.419-1.065.084,1.144c.026.345.04.912.04,1.68a40.963,40.963,0,0,1-.5,6.118,30.8,30.8,0,0,1-1.551,6.094,9.406,9.406,0,0,1-2.5,3.987Z" transform="translate(-42.097 -147.863)" fill="#fff"/>
      <path id="Path_114" data-name="Path 114" d="M63.163,169.894l0-.008a34.954,34.954,0,0,1-2.692-6.677,33.46,33.46,0,0,1-1.366-7.273l-.345-.008a28.185,28.185,0,0,0-.206,3.528,20.146,20.146,0,0,0,1.2,7.339,14.232,14.232,0,0,0,2.924,4.868,9.667,9.667,0,0,0,3.333,2.386l1.173.509-.994-.8A10.979,10.979,0,0,1,63.163,169.894Z" transform="translate(-36.269 -134.659)" fill="#fff"/>
      <path id="Path_115" data-name="Path 115" d="M60.751,185.984l1.875-.011V163.024h2.748v-1.076H56.648v-7.325a14.871,14.871,0,0,0,6-1.464,6.018,6.018,0,0,0,3.457-4.037l.214-.82-.519.67a7.866,7.866,0,0,1-3.228,2.455,24.612,24.612,0,0,1-5.076,1.7,30.654,30.654,0,0,1-5.108.744l-1.071.066,1.036.277a12.918,12.918,0,0,0,2.336.4v8.446a125.157,125.157,0,0,1-.765,15.872c-.5,3.673-1.45,6.231-2.819,7.6l-1,1,1.218-.733a7.4,7.4,0,0,0,3.2-3.987,28.565,28.565,0,0,0,1.648-7.658c.324-3.167.488-7.238.488-12.1v-.026h4.1Z" transform="translate(-50.098 -147.144)" fill="#fff"/>
      <path id="Path_116" data-name="Path 116" d="M63.816,158.35c0,5.574-.81,10.084-2.408,13.4-1.59,3.3-3.626,5.522-6.054,6.6l-1.234.548,1.332-.219a9.16,9.16,0,0,0,5.292-2.882,16.719,16.719,0,0,0,3.634-6.8A36.51,36.51,0,0,0,65.7,158.514V153.2h-1.88Z" transform="translate(-43.514 -139.122)" fill="#fff"/>
      <path id="Path_117" data-name="Path 117" d="M84.068,149.975l.005-.171-1.883-.1-.005.177c-.079,2.023-.2,4.1-.353,6.173H76v1.073h5.717c-1.1,11.592-3.742,19.263-7.84,22.8l-.522.454V160.344a22.63,22.63,0,0,0,1.58-8.193A15.065,15.065,0,0,0,74.607,149l-.229-1.092-.113,1.11a33.712,33.712,0,0,1-1.448,6.938,44.507,44.507,0,0,1-3.2,7.895A14.234,14.234,0,0,1,65.4,169.1l-.712.548.865-.243a7.717,7.717,0,0,0,3.386-1.983,15.628,15.628,0,0,0,2.531-3.188v22.472H73.36v-6.149l.709-.335c2.642-1.245,4.783-3.887,6.379-7.861v14.3h1.883v-3.112h7.61V186.3h1.878V168.136h-10a66.575,66.575,0,0,0,1.8-11.007h9.707v-1.073h-9.6C83.873,154.039,83.989,152,84.068,149.975Zm5.872,19.234v13.272h-7.61V169.209Z" transform="translate(-26.208 -147.789)" fill="#fff"/>
      <path id="Path_118" data-name="Path 118" d="M92.638,148.687H90.676v6.666H81.1V171.5h1.878v-2.028H90.67v16h1.965v-16h7.892v2.02h1.885V155.348H92.635Zm7.9,7.739V168.4H92.64V156.421Zm-9.857-.005V168.4H82.984V156.421Z" transform="translate(0.652 -146.514)" fill="#fff"/>
      <path id="Path_119" data-name="Path 119" d="M96.217,160.308a7.686,7.686,0,0,0,.567,3.294,3.378,3.378,0,0,0,1.98,1.685,11.819,11.819,0,0,0,3.839.49c.208.013.419.021.628.021a10,10,0,0,0,3.784-.746,2.966,2.966,0,0,0,1.627-2.381l.092-.963-.422.87a2.672,2.672,0,0,1-1.664,1.4,13.415,13.415,0,0,1-3.8.4,9.268,9.268,0,0,1-2.835-.337,2.556,2.556,0,0,1-1.274-.844,6.908,6.908,0,0,0,4.5-4.375,8.813,8.813,0,0,1,2.394,1.891,6.866,6.866,0,0,1,1.5,2.326l.187.493.142-.509a3.512,3.512,0,0,0,.127-.936,3.789,3.789,0,0,0-1.2-2.732,4.326,4.326,0,0,0-2.93-1.2c.084-.253.158-.514.222-.781h4.238v-.6l.121-.008a4.519,4.519,0,0,0,2.9-1.282l.008-.005a4.516,4.516,0,0,0,1.137-2.318,20.244,20.244,0,0,0,.2-3.019h3.328v.915a16.711,16.711,0,0,0,.2,3.056,2.4,2.4,0,0,0,.912,1.582,3.559,3.559,0,0,0,2.041.469,2.8,2.8,0,0,0,1.965-.7,2.258,2.258,0,0,0,.68-1.928l-.1-.788-.235.762a1.9,1.9,0,0,1-.723.989,2.579,2.579,0,0,1-1.374.3c-.678,0-1.108-.177-1.271-.506a5.835,5.835,0,0,1-.293-2.268V149.07H110.48v.174c0,1.651-.034,2.882-.1,3.663a4.741,4.741,0,0,1-.641,2.038,3.906,3.906,0,0,1-1.777,1.49l-.045.018v-.074h-4.048a20.5,20.5,0,0,0,.327-3.449h3.193v-.994h-5.675a4.763,4.763,0,0,0,.018-.514,5.953,5.953,0,0,0-.156-1.279h6.861v-1.076H94.4v1.076h1.817Zm3.528-7.223a6.861,6.861,0,0,1-1.727,2.292l0-5.234h2.764A10.9,10.9,0,0,1,99.745,153.086Zm-1.725,3.083A4.66,4.66,0,0,0,100.207,155a4.845,4.845,0,0,0,1.284-2.073h1.068a21.033,21.033,0,0,1-.3,3.449H98.313v.994h3.763a7.628,7.628,0,0,1-3.7,5.19,6.6,6.6,0,0,1-.361-2.576Z" transform="translate(22.422 -145.892)" fill="#fff"/>
      <path id="Path_120" data-name="Path 120" d="M94.568,157.176h10.1a16,16,0,0,1-.214,2.561H98.123V173.3h1.8V170.87h16.581V173.3h1.8V159.736h-6.869v-2.561h9.86V156.1H94.568Zm5.358,8.23v-4.594h4.29a6.988,6.988,0,0,1-1.5,2.816A7.219,7.219,0,0,1,99.926,165.406Zm16.584-.87,0,5.261H99.926V166.01a7.558,7.558,0,0,0,4.064-1.587,6.872,6.872,0,0,0,2.086-3.61h3.57a7.757,7.757,0,0,0,.451,2.336,2.552,2.552,0,0,0,1.332,1.369,6.074,6.074,0,0,0,2.534.414A5.832,5.832,0,0,0,116.51,164.536Zm0-1.274a6.5,6.5,0,0,1-3.963.084,1.5,1.5,0,0,1-.81-.825,5.845,5.845,0,0,1-.3-1.711l5.068,0Zm-10.245-3.526a16.05,16.05,0,0,0,.211-2.561h3.167v2.561Z" transform="translate(22.697 -134.38)" fill="#fff"/>
      <path id="Path_121" data-name="Path 121" d="M100.025,161l-1.6.287,1.622.058c.119,0,.237.005.359.005a10.3,10.3,0,0,0,3.52-.62,12.235,12.235,0,0,0,3.515-1.922,10.8,10.8,0,0,0,2.74,1.653,7.828,7.828,0,0,0,3,.641,8.91,8.91,0,0,0,1.031-.082l1.089-.15-1.081-.192a7.881,7.881,0,0,1-2.653-.991,17.57,17.57,0,0,1-2.858-2,10.92,10.92,0,0,0,2.943-5.53l.042-.208h-9.314v1.071h1.7a6.264,6.264,0,0,0,.678,2.452,10.436,10.436,0,0,0,1.585,2.294,14.489,14.489,0,0,1-3,2.078A11.429,11.429,0,0,1,100.025,161Zm9.609-7.979a9.675,9.675,0,0,1-2.123,3.631,11.841,11.841,0,0,1-2.856-3.631Z" transform="translate(29.019 -141.174)" fill="#fff"/>
      <rect id="Rectangle_81" data-name="Rectangle 81" width="14.65" height="1.075" transform="translate(123.528 32.185)" fill="#fff"/>
    </g>
    <g id="Group_83" data-name="Group 83" transform="translate(76.072 125.318)">
      <path id="Path_79" data-name="Path 79" d="M81.616,170.357c.063-10-.021-11.566,1.5-17.944,3-12.586,12.831-20.5,42.753-17.248,0,0-17.876-7.42-33.848-2.231-5.838,1.9-11.191,5.965-13.385,11.687-2.785,7.273-2.281,12.2-1.788,19.424.251,3.737.264,2.787.546,6.313Z" transform="translate(-32.924 -115.868)" fill="#fff"/>
      <path id="Path_122" data-name="Path 122" d="M83.834,125.318A10.271,10.271,0,1,0,94.1,135.589,10.271,10.271,0,0,0,83.834,125.318Zm4.156,6.239a.947.947,0,1,1-.947.947A.948.948,0,0,1,87.99,131.557Zm-8.333,0a.947.947,0,1,1-.947.947A.948.948,0,0,1,79.657,131.557Zm7.528,8.19a6.313,6.313,0,0,1-6.735.013,5.465,5.465,0,0,1-2.178-2.6,8.854,8.854,0,0,0,2.605,1.814,7.368,7.368,0,0,0,5.88-.013,9.531,9.531,0,0,0,2.613-1.8A5.647,5.647,0,0,1,87.185,139.747Z" transform="translate(-37.661 -125.318)" fill="#fff"/>
      <g id="Group_42" data-name="Group 42" transform="translate(0 16.047)">
        <path id="Path_82" data-name="Path 82" d="M98.437,144.427a18.633,18.633,0,0,0-4.7-4.106,30.723,30.723,0,0,0-5.659-2.806,58.265,58.265,0,0,0-6.047-1.983A90.267,90.267,0,0,0,69.465,133.2c-2.12-.256-4.251-.448-6.387-.554-.928-.045-1.856-.084-2.785-.113A32.665,32.665,0,0,1,72.3,137.52c7.692,5.073,12.787,6.782,22.1,8.9,1.78.4,3.671.285,5.139,1.347a4.559,4.559,0,0,1,1.144,1.15A11.8,11.8,0,0,0,98.437,144.427Z" transform="translate(-59.382 -129.553)" fill="#fff"/>
        <path id="Path_83" data-name="Path 83" d="M70.264,133.921a86.811,86.811,0,0,1,12.942,2.26,39.267,39.267,0,0,1,12.106,5.132,19.566,19.566,0,0,1,4.826,4.507,14.914,14.914,0,0,1,2.51,5.535c.649-3.85,2.6-26.435-42.7-18.129Q65.126,133.391,70.264,133.921Z" transform="translate(-59.948 -131.403)" fill="#fff"/>
      </g>
      <path id="Path_84" data-name="Path 84" d="M79.558,149.612s2.157-20.3,39.786-16.3C119.344,133.31,88.706,138.682,79.558,149.612Z" transform="translate(-27.848 -113.09)" fill="#fff"/>
    </g>
  </g>
</svg>
