<svg xmlns="http://www.w3.org/2000/svg" width="290.821" height="57.47" viewBox="0 0 290.821 57.47">
  <g id="欣佑logo-白色" transform="translate(-168.723 -141.392)">
    <path id="Path_102" data-name="Path 102" d="M185.5,150.986" transform="translate(34.712 19.852)" fill="none" stroke="#3a6928" stroke-linecap="round" stroke-linejoin="round" stroke-width="0.57"/>
    <g id="Group_81" data-name="Group 81" transform="translate(278.335 146.174)">
      <path id="Path_103" data-name="Path 103" d="M209.71,167.832l1.3-.645a10.334,10.334,0,0,0,4.432-4.2,19.156,19.156,0,0,0,2.455-6.586h8.87a14.8,14.8,0,0,1-.746,3.913,6.43,6.43,0,0,1-2.354,3.554l-.813.614.994-.224a4.933,4.933,0,0,0,2.968-2.013,12.052,12.052,0,0,0,1.808-3.557,15.529,15.529,0,0,0,.718-3.4l.021-.236H218.113a21.648,21.648,0,0,0,.172-2.925,20.523,20.523,0,0,0-1.433-7.842l-.528-1.338.107,1.433c.031.436.049,1.148.049,2.112a51.5,51.5,0,0,1-.632,7.682,38.253,38.253,0,0,1-1.943,7.648,11.85,11.85,0,0,1-3.14,5.009Z" transform="translate(-193.526 -142.95)" fill="#fff"/>
      <path id="Path_104" data-name="Path 104" d="M219.347,169.187l0-.009a44.1,44.1,0,0,1-3.382-8.385,42.169,42.169,0,0,1-1.716-9.131l-.433-.012a35.67,35.67,0,0,0-.258,4.435,25.358,25.358,0,0,0,1.51,9.211,17.88,17.88,0,0,0,3.671,6.111,12.116,12.116,0,0,0,4.186,3l1.473.641-1.249-1.01A13.782,13.782,0,0,1,219.347,169.187Z" transform="translate(-185.581 -124.948)" fill="#fff"/>
      <path id="Path_105" data-name="Path 105" d="M217.812,190.734l2.354-.012V161.905h3.453v-1.35h-10.96v-9.2a18.663,18.663,0,0,0,7.529-1.838,7.552,7.552,0,0,0,4.343-5.067l.267-1.031-.651.841a9.872,9.872,0,0,1-4.054,3.081,31.094,31.094,0,0,1-6.375,2.142,38.584,38.584,0,0,1-6.411.933l-1.344.08,1.3.35a16.337,16.337,0,0,0,2.934.5v10.6a157.133,157.133,0,0,1-.961,19.925c-.629,4.613-1.82,7.823-3.539,9.542l-1.261,1.258,1.528-.918a9.3,9.3,0,0,0,4.024-5.009,36.1,36.1,0,0,0,2.072-9.613c.405-3.978.611-9.088.611-15.189v-.034h5.141Z" transform="translate(-204.437 -141.971)" fill="#fff"/>
      <path id="Path_106" data-name="Path 106" d="M220.948,155.174c0,7-1.016,12.657-3.023,16.819-1.995,4.143-4.552,6.933-7.6,8.293l-1.547.687,1.673-.273a11.529,11.529,0,0,0,6.645-3.622,20.978,20.978,0,0,0,4.561-8.532,45.789,45.789,0,0,0,1.654-13.17V148.71h-2.36Z" transform="translate(-195.459 -131.032)" fill="#fff"/>
      <path id="Path_107" data-name="Path 107" d="M244.508,145.594l.009-.215-2.363-.126-.009.221c-.1,2.541-.246,5.147-.442,7.75h-7.32v1.35h7.182c-1.387,14.551-4.7,24.185-9.846,28.632l-.657.568V158.614a28.325,28.325,0,0,0,1.986-10.288,19.049,19.049,0,0,0-.417-3.956L232.342,143l-.141,1.393a42.435,42.435,0,0,1-1.817,8.71,56.06,56.06,0,0,1-4.024,9.913,17.88,17.88,0,0,1-5.285,6.589l-.9.688,1.086-.3a9.7,9.7,0,0,0,4.254-2.489,19.812,19.812,0,0,0,3.18-4v28.215h2.363V183.99l.893-.421c3.318-1.562,6.006-4.88,8.007-9.87v17.955h2.366v-3.907h9.554V191.2h2.357V168.4H241.678a83.426,83.426,0,0,0,2.256-13.817h12.191v-1.35H244.066C244.263,150.7,244.413,148.13,244.508,145.594Zm7.375,24.151v16.659h-9.554V169.746Z" transform="translate(-171.864 -142.851)" fill="#fff"/>
      <path id="Path_108" data-name="Path 108" d="M252.367,143.838H249.9v8.37H237.881v20.272h2.357v-2.544H249.9v20.091h2.464V169.935h9.91v2.535h2.366V152.2H252.361Zm9.91,9.72v15.036h-9.91V153.552Zm-12.378-.006v15.042h-9.656V153.552Z" transform="translate(-135.236 -141.113)" fill="#fff"/>
      <path id="Path_109" data-name="Path 109" d="M254.513,158.361a9.689,9.689,0,0,0,.709,4.137,4.253,4.253,0,0,0,2.486,2.115,14.881,14.881,0,0,0,4.819.614c.264.018.528.025.792.025a12.572,12.572,0,0,0,4.748-.933,3.726,3.726,0,0,0,2.044-2.989l.114-1.209-.528,1.093a3.333,3.333,0,0,1-2.09,1.759,16.694,16.694,0,0,1-4.773.5,11.6,11.6,0,0,1-3.557-.42,3.225,3.225,0,0,1-1.6-1.062,8.662,8.662,0,0,0,5.653-5.491,10.915,10.915,0,0,1,3.008,2.376,8.535,8.535,0,0,1,1.881,2.919l.236.617.175-.638a4.363,4.363,0,0,0,.163-1.175,4.754,4.754,0,0,0-1.513-3.428,5.415,5.415,0,0,0-3.677-1.51c.1-.319.2-.648.279-.982H269.2v-.749l.15-.009a5.676,5.676,0,0,0,3.64-1.608L273,152.3a5.634,5.634,0,0,0,1.43-2.906,26.048,26.048,0,0,0,.255-3.793h4.177v1.148a21.493,21.493,0,0,0,.255,3.843,3.015,3.015,0,0,0,1.148,1.986,4.472,4.472,0,0,0,2.563.586,3.522,3.522,0,0,0,2.468-.872,2.848,2.848,0,0,0,.853-2.422l-.132-.988-.295.954a2.348,2.348,0,0,1-.909,1.243,3.243,3.243,0,0,1-1.725.378c-.85,0-1.39-.221-1.593-.632a7.331,7.331,0,0,1-.368-2.848v-3.726h-8.707v.218c0,2.075-.043,3.622-.126,4.6a5.922,5.922,0,0,1-.8,2.56,4.877,4.877,0,0,1-2.231,1.869l-.055.025v-.092h-5.082a25.7,25.7,0,0,0,.408-4.331h4.008v-1.249h-7.124a6.454,6.454,0,0,0,.025-.648,7.86,7.86,0,0,0-.193-1.605h8.612v-1.347H252.226V145.6h2.286Zm4.426-9.066a8.556,8.556,0,0,1-2.17,2.876l0-6.574h3.474A13.909,13.909,0,0,1,258.938,149.295Zm-2.167,3.87a5.871,5.871,0,0,0,2.747-1.464,6.1,6.1,0,0,0,1.611-2.6h1.341a26.305,26.305,0,0,1-.378,4.331h-4.951v1.246h4.723a9.585,9.585,0,0,1-4.644,6.519,8.31,8.31,0,0,1-.457-3.238Z" transform="translate(-105.554 -140.262)" fill="#fff"/>
      <path id="Path_110" data-name="Path 110" d="M252.408,153.185H265.09a20.128,20.128,0,0,1-.27,3.216H256.87v17.022h2.265v-3.045h20.818v3.045h2.262V156.4h-8.624v-3.216h12.378v-1.35H252.408Zm6.728,10.334v-5.767h5.386a8.735,8.735,0,0,1-1.881,3.533A9.1,9.1,0,0,1,259.136,163.519Zm20.821-1.093,0,6.6H259.136v-4.754a9.509,9.509,0,0,0,5.1-1.992,8.6,8.6,0,0,0,2.618-4.533h4.484a9.775,9.775,0,0,0,.568,2.934,3.189,3.189,0,0,0,1.673,1.716,7.612,7.612,0,0,0,3.183.522A7.33,7.33,0,0,0,279.957,162.427Zm0-1.6a8.176,8.176,0,0,1-4.975.1,1.877,1.877,0,0,1-1.019-1.037,7.321,7.321,0,0,1-.368-2.145l6.362,0Zm-12.86-4.426a20.178,20.178,0,0,0,.261-3.216h3.978V156.4Z" transform="translate(-105.177 -124.565)" fill="#fff"/>
      <path id="Path_111" data-name="Path 111" d="M258.578,158.719l-2,.365,2.035.071c.15,0,.3.006.451.006a12.869,12.869,0,0,0,4.42-.78,15.3,15.3,0,0,0,4.413-2.412,13.561,13.561,0,0,0,3.441,2.075,9.818,9.818,0,0,0,3.772.8,10.719,10.719,0,0,0,1.3-.1l1.366-.187-1.36-.242a9.88,9.88,0,0,1-3.33-1.246,22.1,22.1,0,0,1-3.588-2.508,13.692,13.692,0,0,0,3.7-6.946l.052-.261H261.543V148.7h2.139a7.909,7.909,0,0,0,.85,3.078,13.077,13.077,0,0,0,1.992,2.882,18.287,18.287,0,0,1-3.772,2.609A14.294,14.294,0,0,1,258.578,158.719ZM270.643,148.7a12.159,12.159,0,0,1-2.664,4.558,14.8,14.8,0,0,1-3.588-4.558Z" transform="translate(-96.557 -133.831)" fill="#fff"/>
      <rect id="Rectangle_80" data-name="Rectangle 80" width="18.394" height="1.35" transform="translate(155.094 40.408)" fill="#fff"/>
    </g>
    <path id="Path_79" data-name="Path 79" d="M189.124,188.038c.064-10.546-.025-12.2,1.574-18.928,3.158-13.274,13.532-21.619,45.089-18.191,0,0-18.851-7.826-35.7-2.354-6.157,2-11.8,6.292-14.115,12.329-2.937,7.67-2.406,12.86-1.888,20.484.264,3.941.279,2.94.577,6.66Z" transform="translate(30.952 10.824)" fill="#fff"/>
    <path id="Path_112" data-name="Path 112" d="M191.891,141.392a10.831,10.831,0,1,0,10.831,10.831A10.831,10.831,0,0,0,191.891,141.392Zm4.383,6.58a1,1,0,1,1-1,1A1,1,0,0,1,196.274,147.972Zm-8.79,0a1,1,0,1,1-1,1A1,1,0,0,1,187.484,147.972Zm7.94,8.64a6.656,6.656,0,0,1-7.1.012,5.769,5.769,0,0,1-2.3-2.741,9.4,9.4,0,0,0,2.747,1.915,7.784,7.784,0,0,0,6.2-.015,10.065,10.065,0,0,0,2.756-1.9A5.971,5.971,0,0,1,195.424,156.612Z" transform="translate(25.527 0)" fill="#fff"/>
    <path id="Path_81" data-name="Path 81" d="M178.737,155.114" transform="translate(20.721 28.393)" fill="none" stroke="#335525" stroke-linecap="round" stroke-linejoin="round" stroke-width="0.55"/>
    <g id="Group_42" data-name="Group 42" transform="translate(168.723 158.315)">
      <path id="Path_82" data-name="Path 82" d="M209.263,160.472a19.8,19.8,0,0,0-4.954-4.331,32.655,32.655,0,0,0-5.97-2.959,61.7,61.7,0,0,0-6.378-2.093,95.07,95.07,0,0,0-13.256-2.455c-2.234-.27-4.481-.473-6.734-.583q-1.469-.074-2.937-.12a34.39,34.39,0,0,1,12.666,5.257c8.109,5.35,13.483,7.154,23.307,9.389,1.878.427,3.873.3,5.423,1.421a4.817,4.817,0,0,1,1.206,1.212A12.461,12.461,0,0,0,209.263,160.472Z" transform="translate(-168.075 -144.785)" fill="#fff"/>
      <path id="Path_83" data-name="Path 83" d="M179.6,149.561a91.483,91.483,0,0,1,13.652,2.385,41.464,41.464,0,0,1,12.768,5.411,20.6,20.6,0,0,1,5.089,4.754,15.711,15.711,0,0,1,2.649,5.835c.681-4.061,2.744-27.88-45.034-19.118Q174.183,149,179.6,149.561Z" transform="translate(-168.723 -146.906)" fill="#fff"/>
    </g>
    <path id="Path_84" data-name="Path 84" d="M186.492,165.9s2.274-21.41,41.962-17.193C228.454,148.714,196.138,154.377,186.492,165.9Z" transform="translate(36.767 14.006)" fill="#fff"/>
  </g>
</svg>
