<svg xmlns="http://www.w3.org/2000/svg" width="107.902" height="107.902" viewBox="0 0 107.902 107.902">
  <g id="痠痛針灸icon" transform="translate(-539.375 -1422.834)">
    <path id="Path_73" data-name="Path 73" d="M53.951,0A53.951,53.951,0,1,1,0,53.951,53.951,53.951,0,0,1,53.951,0Z" transform="translate(539.375 1422.834)" fill="#ffaf5e"/>
    <path id="Path_43" data-name="Path 43" d="M630.277,1258.453c-1.285.618-2.569,1.238-4.169,2.009.369-.822.641-1.311.81-1.832a1.436,1.436,0,1,0-2.622-1.171c-.5.983-.973,1.98-1.46,2.971-.8,1.626-1.6,3.252-2.5,5.092-.821-.856-1.485-1.577-2.18-2.265-.863-.854-1.613-.939-2.284-.3-.707.671-.624,1.462.265,2.369.811.827,1.631,1.645,2.483,2.5l-6.538,5.036c-1.826-3.046-3.81-4.457-6.384-4.61q-1.889-.112-2.013,1.331c-.081.954.515,1.5,1.77,1.611a4.428,4.428,0,0,1,3.79,2.719.968.968,0,0,1-.337,1.436c-1.123.784-2.161,1.687-3.253,2.515a4.808,4.808,0,0,1-6.81-6.664c.353-.495.733-.971,1.131-1.431q5.193-6.009,10.4-12.006a7.6,7.6,0,0,0,1.771-5.73,1.332,1.332,0,0,0-1.3-1.341c-.937-.117-1.586.5-1.577,1.636a6.132,6.132,0,0,1-1.758,4.322c-1.28,1.409-2.577,2.813-3.744,4.314-3.06,3.932-7.135,7.077-9.207,11.833-1.753-.536-3.293.173-4.821,1.12a4.373,4.373,0,0,1-.092-.518c-.2-5.138-.405-10.276-.552-15.416a1.634,1.634,0,0,1,.67-1.144c1.994-1.4,4.016-2.762,6.079-4.055a2.125,2.125,0,0,1,1.551-.168c2.26.669,4.491,1.438,6.734,2.164,1.213.392,2.055.093,2.359-.822.284-.854-.222-1.577-1.409-1.962-2.133-.695-4.266-1.392-6.412-2.046a.967.967,0,0,1-.826-1.122c.051-1.293.023-2.59,0-3.885a1.416,1.416,0,0,0-1.449-1.57c-.9-.048-1.444.564-1.459,1.642-.019,1.372.051,2.747-.037,4.113a1.878,1.878,0,0,1-.683,1.258q-2.986,2.1-6.083,4.048a1.775,1.775,0,0,1-1.418.1c-1.436-.6-2.809-1.355-4.228-2-.809-.367-1.654-.328-2.046.58a1.414,1.414,0,0,0,.862,1.956c1.339.64,2.65,1.339,4.007,1.937a1.266,1.266,0,0,1,.869,1.282c.173,5.482.392,10.962.557,16.444a3.2,3.2,0,0,1-3.072,3.324,3.377,3.377,0,0,1-3.448-3.134c0-1.4.118-2.19,1.681-2.321a1.306,1.306,0,0,0,1.284-1.561,1.324,1.324,0,0,0-1.543-1.322,14.628,14.628,0,0,0-2.063.406c-.056-.3-.123-.59-.162-.88-.646-4.79-1.25-9.586-1.957-14.366a4.58,4.58,0,0,1,1.148-4.109c3.31-3.476,6.59-6.981,9.972-10.387a8.658,8.658,0,0,1,7.681-2.721c6.732,1.037,13.447,2.184,20.169,3.286q7.21,1.182,14.421,2.359c1.235.2,1.929-.173,2.074-1.026.167-.974-.329-1.533-1.591-1.739-11.079-1.813-22.171-3.549-33.233-5.461a13.18,13.18,0,0,0-12.805,4.487c-2.8,3.068-5.667,6.07-8.54,9.069a7.6,7.6,0,0,0-2.126,6.591q1.357,10.36,2.7,20.719a5.577,5.577,0,0,0,3.595,4.639,6.3,6.3,0,0,0,6.651-.978,5.745,5.745,0,0,0,3.269,4.174l.027.012a2.149,2.149,0,0,0-.32,1.127v10.655a2.164,2.164,0,0,0,1.267,1.967q0,1.363,0,2.725l-20.094,5.288a1.115,1.115,0,1,0,.566,2.156l19.53-5.14q0,3.13,0,6.258c0,1.243.552,1.866,1.535,1.828.937-.036,1.383-.61,1.387-1.833.009-2.131,0-4.26,0-6.419.262-.095.466-.188.681-.241,5.134-1.26,10.256-2.572,15.409-3.75,2.852-.652,5.757-1.079,8.639-1.6a1.681,1.681,0,0,0,1.572-1.872c-.127-.818-.834-1.193-1.963-1.041-.075.01-.15.024-.225.041-6.133,1.315-12.268,2.618-18.4,3.955-1.81.4-3.6.888-5.375,1.331-.084-.193-.141-.26-.141-.329,0-.436,0-.871,0-1.306a2.164,2.164,0,0,0,1.391-2.019v-10.655a2.158,2.158,0,0,0-.327-1.138,6.5,6.5,0,0,0,2.849-2.908,7.315,7.315,0,0,0,8.748-.768c3.859-3.1,7.787-6.117,11.723-9.12a14.047,14.047,0,0,0,4.217-5.305,2.719,2.719,0,0,1,1.12-1.169c2.288-1.205,4.618-2.332,6.93-3.493,1.219-.611,1.592-1.339,1.151-2.2Q632.115,1257.566,630.277,1258.453ZM593.4,1281.267a2.689,2.689,0,0,1-2.849-2.75,2.889,2.889,0,0,1,2.841-2.951,3.444,3.444,0,0,1,2.945,3.068C596.4,1279.93,594.94,1281.238,593.4,1281.267Z" transform="translate(-8.596 206.291)" fill="#fff"/>
  </g>
</svg>
