<svg xmlns="http://www.w3.org/2000/svg" width="107.902" height="107.902" viewBox="0 0 107.902 107.902">
  <g id="腸胃肝膽icon" transform="translate(-793.977 -1422.834)">
    <path id="Path_74" data-name="Path 74" d="M53.951,0A53.951,53.951,0,1,1,0,53.951,53.951,53.951,0,0,1,53.951,0Z" transform="translate(793.977 1422.834)" fill="#ffaf5e"/>
    <g id="Group_4" data-name="Group 4" transform="translate(817.507 1439.788)">
      <path id="Path_11" data-name="Path 11" d="M866.349,1274.182c-.131,8.185-2.648,15.452-8.453,21.374-5.827,5.945-12.732,7.352-20.543,4.616a36.223,36.223,0,0,1-9.1-4.841,7.966,7.966,0,0,0-4.363-1.648,8.082,8.082,0,0,0-8.069,6.752,14.051,14.051,0,0,0,.258,5.178c.517,2.392-.77,4.011-3.21,4.022-1.392.006-2.784.012-4.176,0a2.929,2.929,0,0,1-3.18-3.137,27.774,27.774,0,0,1,2.19-11.5,18.434,18.434,0,0,1,13.972-11.227c1.932-.394,3.921-.508,5.873-.823a10.1,10.1,0,0,0,5.109-2.364,27.141,27.141,0,0,0,6.194-7.915,5.554,5.554,0,0,0-2.984-7.616,28.032,28.032,0,0,1-4.358-2.195c-5.469-3.473-7.627-8.869-6.143-15.158a31.828,31.828,0,0,1,5.1-10.729,3.218,3.218,0,0,1,3.654-1.162c1.1.33,2.192.691,3.282,1.055,2.482.828,3.278,2.872,1.958,5.134a22.352,22.352,0,0,0-3.044,7.453,11.356,11.356,0,0,0-.1,2c0,.2.14.519.285.566a.84.84,0,0,0,.619-.222c1.3-1.033,2.515-2.175,3.874-3.113a13.1,13.1,0,0,1,8.665-2.589,12.069,12.069,0,0,1,8.219,4.531c3.537,4.054,5.6,8.883,7.094,13.979A33.851,33.851,0,0,1,866.349,1274.182Zm-33.06-34.432a27.159,27.159,0,0,0-4.219,9.233c-.828,3.922.146,7.272,3.429,9.669a31.4,31.4,0,0,0,5.1,2.833,9.581,9.581,0,0,1,5.344,11.25,18.683,18.683,0,0,1-3.53,6.251,21.588,21.588,0,0,1-7.613,6.635,21.972,21.972,0,0,1-7.233,1.641,16.294,16.294,0,0,0-9.1,3.636c-3.277,2.764-4.859,6.442-5.564,10.555-.232,1.351-.305,2.729-.453,4.117h2.472c-.089-1.118-.249-2.182-.237-3.243a17.555,17.555,0,0,1,.32-3.182,12.028,12.028,0,0,1,11.78-9.47,11.038,11.038,0,0,1,6.345,2.188,32.951,32.951,0,0,0,9.2,4.816,14.257,14.257,0,0,0,14.89-3.2,24.491,24.491,0,0,0,8.017-16.979c.592-8.194-1.892-15.563-6.48-22.279a11.878,11.878,0,0,0-1.767-1.965c-2.932-2.718-6.385-3.009-10.006-.708a38.108,38.108,0,0,0-4.141,3.276,4.45,4.45,0,0,1-4.758.979,4.252,4.252,0,0,1-2.9-3.866,14.01,14.01,0,0,1,.927-6.216c.657-1.767,1.488-3.468,2.273-5.273Z" transform="translate(-805.507 -1235.647)" fill="#fff"/>
      <path id="Path_12" data-name="Path 12" d="M840.125,1290.44a19.63,19.63,0,0,1-9.089-2.816,1.224,1.224,0,0,1-.529-1.779,8.007,8.007,0,0,1,5.438-4.848c2.385-.679,4.845-1.1,7.273-1.623a7.526,7.526,0,0,0,3.949-1.633,9.713,9.713,0,0,0,2-2.847,10.944,10.944,0,0,1,5.079-5.574c1.285-.654,2.016-.195,1.967,1.259-.19,5.676-1.77,10.84-5.59,15.187A13.213,13.213,0,0,1,840.125,1290.44Z" transform="translate(-802.376 -1231.436)" fill="#fff"/>
    </g>
  </g>
</svg>
