<svg xmlns="http://www.w3.org/2000/svg" width="107.902" height="107.902" viewBox="0 0 107.902 107.902">
  <g id="調經痛icon" transform="translate(-1046.598 -1422.834)">
    <path id="Path_76" data-name="Path 76" d="M53.951,0A53.951,53.951,0,1,1,0,53.951,53.951,53.951,0,0,1,53.951,0Z" transform="translate(1046.598 1422.834)" fill="#ffaf5e"/>
    <g id="Group_5" data-name="Group 5" transform="translate(1072.963 1439.259)">
      <path id="Path_13" data-name="Path 13" d="M1089.973,1273.9a1.617,1.617,0,0,0-1.764-1.684c-1.588-.018-3.022-.029-4.5.008-.313.028-.377-.035-.483-.353-.448-1.338-.91-2.669-1.372-4-.4-1.156-.8-2.315-1.195-3.475a1.737,1.737,0,0,0-1.709-1.3,1.6,1.6,0,0,0-1.479,1.367c-.5,1.7-1.007,3.394-1.517,5.09l-.832,2.734q-1.542-3.9-3.077-7.792l-.046-.118c-.19-.5-.452-1.179-1.319-1.294a1.922,1.922,0,0,0-1.831,1.047q-2.522,3.539-5.061,7.063l-1.16,1.614-.043.06-.435-1.419c-.413-1.352-.825-2.705-1.277-4.044-.128-.383-.6-1.106-1.169-1.13a2.837,2.837,0,0,0-1.389.5l-.137.081a1.136,1.136,0,0,0-.431.565c-.025.053-.047.107-.074.154l-.96,1.679c-1,1.75-2.007,3.5-2.989,5.265a.589.589,0,0,1-.667.38c-1.073-.036-2.16-.022-3.21-.011l-.246,0a1.791,1.791,0,0,0-1.32.477,1.547,1.547,0,0,0-.405,1.134,1.518,1.518,0,0,0,1.688,1.561c.926.021,1.852.016,2.778,0,.422,0,.778,0,1.081,0,1.9.02,2.021-.063,2.922-1.679.149-.268.325-.583.544-.957.572-.976,1.135-1.957,1.723-2.981l.341-.594v0l.386,1.236c.361,1.15.722,2.3,1.054,3.459a1.814,1.814,0,0,0,1.487,1.512,1.763,1.763,0,0,0,1.716-.982q3.2-4.458,6.413-8.9l.078-.1c.03.073.06.146.089.218l3.623,9.072c.206.513.547,1.366,1.577,1.366h.064a1.688,1.688,0,0,0,1.537-1.472c.622-2.06,1.259-4.116,1.9-6.172l.384-1.24.169.494c.465,1.357.9,2.634,1.328,3.918a1.55,1.55,0,0,0,1.5,1.238c1.839.019,4.016.03,6.211-.006A1.46,1.46,0,0,0,1089.973,1273.9Z" transform="translate(-1041.388 -1231.66)" fill="#fff"/>
      <path id="Path_14" data-name="Path 14" d="M1087.455,1266.331a43.375,43.375,0,0,1-3.316-23.9c.171-1.239.367-2.473.553-3.638l.241-1.525,0-.057c.026-1.461-.706-1.854-1.323-1.928a1.5,1.5,0,0,0-1.723,1.259q-.159,1.1-.327,2.208c-.284,1.892-.579,3.847-.771,5.786a44.552,44.552,0,0,0,2.535,20c.448,1.217.935,2.421,1.42,3.626.748,1.848,1.52,3.76,2.13,5.68a48.418,48.418,0,0,1,1.284,25.341,36.986,36.986,0,0,1-2.938,8.555,1.8,1.8,0,0,0-.014,1.7,1.535,1.535,0,0,0,1.226.775c.059.006.116.009.171.009A1.8,1.8,0,0,0,1088.2,1309a44.389,44.389,0,0,0,4.035-15.048A55,55,0,0,0,1087.455,1266.331Z" transform="translate(-1037.265 -1235.166)" fill="#fff"/>
      <path id="Path_15" data-name="Path 15" d="M1048.975,1306.658a37.272,37.272,0,0,1-3.518-13.1,49.86,49.86,0,0,1,4.208-25.118,47.9,47.9,0,0,0,4.268-20.564,54.7,54.7,0,0,0-1.038-9.351c-.115-.685-.23-1.37-.339-2.058a1.446,1.446,0,0,0-1.609-1.28,1.536,1.536,0,0,0-1.43,1.58,4.945,4.945,0,0,0,.074.726c.108.742.224,1.482.341,2.222.241,1.539.491,3.131.66,4.7a41.933,41.933,0,0,1-2.337,19.041c-.44,1.2-.919,2.4-1.4,3.59-.76,1.893-1.545,3.851-2.166,5.833-3.357,10.747-3.435,21.152-.234,30.925a39.692,39.692,0,0,0,1.806,4.323l.458.99a1.658,1.658,0,0,0,1.054.905,1.716,1.716,0,0,0,.469.065,1.568,1.568,0,0,0,.861-.253,1.655,1.655,0,0,0,.362-2.3C1049.294,1307.247,1049.123,1306.958,1048.975,1306.658Z" transform="translate(-1042.115 -1235.177)" fill="#fff"/>
      <path id="Path_16" data-name="Path 16" d="M1076.356,1281.905a1.794,1.794,0,0,0-1.357.649q-2.594,2.581-5.175,5.176c-.533.538-1.055,1.084-1.586,1.64l-.482.5c-.114-.1-.211-.194-.305-.288l-5.887-5.888c-.467-.474-.937-.949-1.429-1.4a1.554,1.554,0,0,0-2.242,2.128,3.813,3.813,0,0,0,.4.44l1.74,1.741q2.819,2.826,5.653,5.633a1.305,1.305,0,0,1,.436,1.062c-.026,2.69-.019,5.382-.007,8.07a1.749,1.749,0,0,0,.6,1.448,1.449,1.449,0,0,0,.93.313,2.078,2.078,0,0,0,.438-.05,1.6,1.6,0,0,0,1.214-1.771l0-2.285c0-1.928.006-3.856-.015-5.784a1.228,1.228,0,0,1,.428-.992q3.772-3.727,7.506-7.494a1.584,1.584,0,0,0,.2-2.354A1.484,1.484,0,0,0,1076.356,1281.905Z" transform="translate(-1040.168 -1229.284)" fill="#fff"/>
    </g>
  </g>
</svg>
