<svg xmlns="http://www.w3.org/2000/svg" width="107.902" height="107.902" viewBox="0 0 107.902 107.902">
  <g id="骨質退化-icon" transform="translate(-925 -1194.504)">
    <ellipse id="Ellipse_8" data-name="Ellipse 8" cx="53.951" cy="53.951" rx="53.951" ry="53.951" transform="translate(925 1194.504)" fill="#ffaf5e"/>
    <path id="Path_22" data-name="Path 22" d="M998.219,1079.358a9.877,9.877,0,0,0,1.01-2.872,10.1,10.1,0,0,0-2.347-8.553,16.044,16.044,0,0,1-1.649-2.228,4.99,4.99,0,0,0,1.648-3.709,5.05,5.05,0,0,0-3.781-4.881v-8.98a1.259,1.259,0,0,0-1.26-1.26H976.72a1.26,1.26,0,0,0-1.26,1.26v10.291a14.455,14.455,0,0,1-3.726,9.447c-.02.019-.038.037-.056.057a10.073,10.073,0,0,0-1.324,11.416,10.064,10.064,0,0,0,0,13.174,10.053,10.053,0,0,0,.865,10.857,4.973,4.973,0,0,0-.8,2.722,5.046,5.046,0,0,0,4.82,5.035,12.786,12.786,0,0,1,.219,2.314v10.291a1.26,1.26,0,0,0,1.26,1.26h15.121a1.26,1.26,0,0,0,1.26-1.26v-10.291a14.464,14.464,0,0,1,3.779-9.5,10.09,10.09,0,0,0,2.347-8.554,9.78,9.78,0,0,0-1.009-2.872,10.082,10.082,0,0,0,0-13.16Zm-24.7-9.7c.018-.017.034-.036.052-.054a16.985,16.985,0,0,0,4.41-11.175V1049.4h12.6v8.821a1.26,1.26,0,0,0,1.26,1.259,2.509,2.509,0,0,1,1.153,4.743,1.259,1.259,0,0,0-.535,1.7,18.42,18.42,0,0,0,2.534,3.684,7.591,7.591,0,0,1,1.758,6.432,7.507,7.507,0,0,1-5.875,5.968,7.617,7.617,0,0,1-4.392-.4,10.045,10.045,0,0,0,2.838-7.006H986.8a7.56,7.56,0,1,1-13.283-4.94Zm-3.1,16.282a7.471,7.471,0,0,1,1.466-4.469,10.045,10.045,0,0,0,12.4,1.855,10.1,10.1,0,0,0,7.086,1.151,9.948,9.948,0,0,0,5.315-2.993,7.538,7.538,0,0,1,0,8.912,9.948,9.948,0,0,0-5.315-2.992,10.1,10.1,0,0,0-7.086,1.151,10.043,10.043,0,0,0-12.393,1.85A7.494,7.494,0,0,1,970.42,1085.938Zm24.571,16.337a16.981,16.981,0,0,0-4.411,11.174v9.032h-12.6v-9.032a15.782,15.782,0,0,0-.528-3.966,1.268,1.268,0,0,0-1.49-.911,2.677,2.677,0,0,1-.5.047,2.514,2.514,0,0,1-1.729-4.344,1.26,1.26,0,0,0,.046-1.783,7.557,7.557,0,1,1,13.024-5.214h2.52a10.05,10.05,0,0,0-2.839-7.006,7.637,7.637,0,0,1,4.392-.4,7.51,7.51,0,0,1,5.875,5.97A7.591,7.591,0,0,1,994.992,1102.275Z" transform="translate(-4.9 161.461)" fill="#fff"/>
  </g>
</svg>
